<?xml version="1.0" encoding="UTF-8"?>
<svg id="Warstwa_1" xmlns="http://www.w3.org/2000/svg" version="1.1" viewBox="0 0 550.4 148.9">
  <!-- Generator: Adobe Illustrator 30.5.1, SVG Export Plug-In . SVG Version: 2.1.4 Build 3)  -->
  <defs>
    <style>
      .st0 {
        fill: none;
        stroke: #fff;
        stroke-miterlimit: 10;
      }
    </style>
  </defs>
  <path class="st0" d="M466.6,119.4c-.2-2.6,2.2-5.4-2.2-6.1,1.2-3.5,1.9-5.2,3.1-8.7,1.4-3.9,0-6.2-4.1-7-1.9-.3-2.3-3.2-2.8-4.9-.4-1.5-5.8,0-7.5-.3-5.6-1.1-12.5-2.2-18.9,2.1-2.4,1.6-4.6,5.7-7.1,7-2.6,1.3-4.2,2-5.6,3.7-2.1,2.6-3.2,3.9-5.3,6.5-17.2,3.8-12.4-4.4-21.4,2.2-2.1,1.5-7.5,2.4-10.2,1.5-5.2-1.8-10.9-2.7-16.6-3.2-1.2-.6-3.1-2.1-4.6-2.2s-4.5.6-6.1,1.1c-6.4-1.1-9.6-1.6-16.1-2.6-3.1-.2-4.6-.3-7.7-.4-1.4,0-3.2-.8-3.1-1.4.2-1.2,1.6-1.7,4.1-1.9,3.2-.4,4.9-2.9,3.7-4.3-2.3-2.7-8.6-4.9-14.9-3.6-3.5,2.2-5.3,3.3-8.7,5.4-1.6,1-3.4,2-5.4,2.9-1.1.5-1.8,2.2-2.9,2.7-1.3.6-5.3,1.1-6.3.4-1.2-.8-2.4-1.8-3.6-2.1-1.8-.4-4.4.1-6.5.4-4.1.7-9.5.8-13.3,1.6-8.6,1.9-4.2-.3-18.4-1.3-5.4-.4-5.7,3.6-6.2,5.2-.5,1.5-.4,2.8,1.1,3.8,4.3,2.9-6.9,5.3-10.3,6.2-1.8-.8-2.6-1.2-4.4-2.1.3-1.7.4-2.6.8-4.3.5-2.6,1.5-5.4-.6-7.9-13.8-1.9-10.9,3.3-16.9,2.7-8-6.8,5.8-5.6-.6-12.6-1.1-1.3-2.9-2.1-5-3-6-2.7-12.8-2.4-16.9-.6-1.6.7-1.1,2.5-1.4,4-.4,1.9-.7,2.8-1.1,4.8-3,1.6-4.8,3.2-6,5.4-.6,1-3.9,2.6-4.2,3.7-.5,2.4-1.3,4.5-5.4,5.4,0,1.5-.1,2.3-.2,3.8-1.3,1-6.9,1.6-8.7.4-1.3-.9-2.9-2.2-4.1-3.3-1.1-1,2.2-2.9,3.9-3.4.3-1.5.4-2.3.8-3.8.3-1.6,1.3-4.1-1.4-5.3-3.2-1.5-7.4-.4-9.8.7-14.4,6.6-6.4,11-10.4,13.9-.9.6-3.8.8-5.2.9-5.4.7-4.1,4.6-3.3,7.1.7,2.3,1.1,3.5,1.8,5.8,1.2,3.6,1.8,5.4,3,9,.4,1.2.2,3.4-.4,4.6-3.1,1-8.1.9-10.7-1-1.5-2.8-2.2-4.1-3.7-6.9-.9-1.7-1.5-3.6-2.3-5.4-3.9-9-5.9-13.5-9.9-22.5-.9-2-4.8-4.1-7.7-5.4-8.8-4-13.3-6.2-22.5-10.8-1.1-.6-3-3.3-4.3-3.1-9.1.9-7-4.6-21,0,1,6.5-3.1,10.1-5.2,13-3.8,5.4-6.5,17.6-8.2,19.2-2.3,2.1-.7,5.8-1.3,8.4-.5,2.2-3,3.8-1.7,7.4.6,1.7-4.3,7.7-9.2,4.9-6.9-4,.7-7.9-1.1-17.7,6.2-4.1-.4-8.7,1.5-11.8,1.6-2.5,2.9-5.9,3-9.4,1.7-1.7,2.5-2.6,4.3-4.2-4.8-12.9,7.2-3.1-2.2-22.8-8.5-2-12.8-3-21.4-5.3-13.1-6.5-4.9-3.9-15.5-9.1,3.5-6.3,15.4-1.2,20.4-4.4,1.8-1.2,3.3-1.8,5.3-2.7,3.4-1.7,5.1-2.4,8.6-3.9,1.3-.6,3.7-1.3,5.6-.9,5.1,1.1,4.5-1.1,4.8-3.6.4-3.2,6.9-3.5,9.3-5.5,1.1-.9.5-4.2,2.1-4.5,7.5-1.6,8.7-3.1,13.5-1.7,1.9.6,4.1,2.3,6.2,4,2.4,1.2,3.6,1.7,6.1,2.8.9,2,2.1,5,3,6.8.6,1.1,4.8,2.4,6.2,2.4,4.5-.1.4-6.1-2.6-8.8.3-1.6.2-3.5-1.5-5.8-2.9-4-2.6-8.4-7.9-12.3-3.8-2.8-11.1-6.2-14.1-9.1-3-3-4.6-4.5-7.7-7.5,10.3-.3,15,4.6,24,2.6,11.6,5.3,9.4,3.2,17.5,9.6.2,1.9.4,2.9.6,4.8.2,2.2.4,3.2.6,5.4.3,2.7.9,5.1,2.6,8.1,1.7,3.1,7.9,15.2,13.2,16.1,1.7.3,4-.3,5.7-.8,3.6.9,12.6,6.7,13.7,7.6,3.2,2.6,14.5,12.3,20,11.7,3.1-.3,1.8-1.9,1.3-3.5-.9-2.6-1.3-4-2.1-6.6-.8-2.3-.8-3.9-.4-6.1.7-4.1-4.9-8.4.3-9.3.8-.1,3.4,1.1,3.8,1.6,1.5,1.9,2.2,2.8,3.7,4.7,7.2,1.8,9.4,4.8,10.5,7.9.5,1.5,9.9,4.4,13,4.6,1.4,0,2.8-1,3.2-1.7,1-1.6,4-2.1,6.1-3,3-1.3,3.8-3.6,9.9-3.5.5-1.5.7-2.2,1.2-3.6.2-.7.3-2.3-.7-2.9s-3.5-1.2-6-1.9c-1.5-.4-2.7-1.8-2.5-2.4.2-.7,3.2-1.9,4.8-1.4,3.7,1.7,5.6,2.6,9.2,4.2,5.1.7,12.2,1.7,16.9,1.7,7,0,4.9-3.8,6.8-5.2,1.9-1.4,5.2-2.4,2.1-4.6,2.9-1,4.3-1.6,7.3-2.6,3,1,4.5,1.5,7.4,2.4,2.1.7,3.2,1.7,3.3,3,0,1,1.6,2,2.3,2.9,1.5,1.9,2.2,2.8,3.6,4.7,4.8,6.2,6.9,2.8,14.3,5.3,1.5.5,1.3,1.8,1.3,3,0,.6,0,1,.1,1.6.1,2-15.4-.2-21.1,2.9-4.7,5.5,7.4,7.1,5.4,9.1-4.9,5.1-.6.6-1.1,8.2,0,.7.4,1.9,1.3,2.3,3.9,1.7,17,.4,16.9-1.8-1-2.1-3.5-3.8.8-5.7-1.1-2-1.6-3-2.7-5,2.3-.6,6-1.3,9.4-2,1.6-1.4.1-4.3-.8-5.8,9.2-2.3,6.2-3.4,15.9-5,3.2-.5,5.1-1.9,7.4-2.9,3.7-1.5,8.4-2.5,9.1-5,.2-.8,2.4-2.3,3.4-2.7,4.1.7,8.2,1.4,11.3,1.8,1.8.2,7.4-.7,8.6-.2,1.2.5,2.5,1.7,3.4,2.6.6.5,4.3.5,5.6.8,5.1,1.1-6.1,6-9.5,6.5-6.2.9-10.3,2.7-11.4,5.6-1.1,2.8,3,6.5,4.3,6.9,1.4.3,5.7-.6,6-1.3.7-2,1.1-3.1,1.9-5.1,9.7-1.6,5.6-3,11.6-3.9,1.4-.2,2.6,1.1,3.5,1.5,3.3,1.4,9.5-.2,13.7-1.9,7.6-3.2,11.1-2.2,13.4-4.5.6-.6.2-2.2-.7-2.5-4.7-1.3-4.2-5.2,1.9-8,2.9-.4,4.3-.7,7.2-1.1,5.6-.9,9.7-1.2,13.3.2,4-.5,6.1-.7,10.1-1.3,1.5-.9,2.3-1.4,3.9-2.3,6.9-1.6,13.3-3.7,19.9-6.8,6.6,2.4-5,9.3,6.9,11.5,3.8.7,8.4-.7,13.2-3.2,9.6,2-4.2,8.1,5.7,9.7,1,1.7-.3,5.6-.9,8.6-.4,1.7,2.7,1.8,5.7.7,5.1-2,2.5-3.9,7.5-11.8,2.6-4,3.6-7.9,5.5-11.8,2.8-5.9,7.7-12.2,9.4-17.9,1-3.2,2.2-7.1,7.6-10.9,3.2-2.3,9.9-3.8,12.6-3.6-2.3,5.9-3.4,8.9-5.7,14.9-.3.7,1.7,1.3,1.2,2-.5.7-2.5,2.6-3,3.4-2.3,4.1-3.4,6.1-5.6,10.2-1.5,2.5-2.2,3.7-3.7,6.1-4.6,7.7-7.6,14.7-11.2,22.5-.7,1.5,2.4,3.2,2.5,4.6.2,3.3.1,8-.2,11.9-.1,1.3-2.5,5-1.6,5.8,4.2,1.4,8,3.4,10.7,6.4,1.1,1.3,4.5,1.9,5.7,3.1,3,3.1,4.4,4.6,7.3,8,.4.9.2,3.7.3,4.8.2,3.2.3,4.8.4,8-6.4,3.9-10.1,3.9-12.4.3-1.8-2.9-2.7-4.3-4.6-7-1.6-2.3-7.4-2.6-9.9-4.4-1.4-1-3.3-1.9-5-1.7-2.1.2-4.8,2.2-5.8,4-2.1,3.7-3.2,5.6-5.3,9.3-1.3,2.3-3.5,4.7-6,5.6-.1-3.3-.2-4.9-.4-8.1h0ZM230.6,83.6c2.9,1.1,7.7-.2,9-1.1,1.8-1.2,1.1-3,.7-4.6-2.1-7.4,5.4-10.5-1.7-14.5-.9-.5-4.8-1.2-6.1-.9-1.3.3-2.8,1.2-4.2,1.7-1.1.4-4.7.3-4.8.8-.1.5.3,1.6.4,2.2.9,5.1-1.2,5.9,1.4,9.4,1.6,2.1,1.4,5.2,5.4,6.8h0ZM103.6,92.3c4.3,1.2,7.9.2,8.9-1.6.7-1.3-1.1-3.8-1.8-5.3,5.7-4.6-10-6.9-2.7-13.3-5.1-7.1-.8-8-5-14.8-1.1-1.7-5.9-3.1-8-3.1-1.8,0-1.9,4.3-8.8,8.3-2.5,1.5-3.5,3.3-5.1,5-1.8,1.9-3.6,2.8-3.8,5.6-.2,3.7-.1,6.4,5.7,10.1,3.8,2.4,8.2,4.6,13,5.4,2,.9,5.7,3.1,7.6,3.7ZM400.5,77.6c3.9-1.1,5.9-1.7,9.9-2.9,1.6-1.9,2.4-2.8,4.1-4.7,5.4-.9,13.4-4.8,12.3-7.3-.4-.9-3.8-.8-6.1-.4-2.2.3-3.3.5-5.5.8-1.2.2-2.4,2.1-3.6,2.6-4.6,1.8-13.8,6-15.4,8.3-.7,1,.3,2.5,1.2,3.2-2.6.5-5.6,1.4-6.6,2.3-1,.8-.8,2.9.7,3.1,2,.2,5.7,0,7.1-.7,1.4-.8,1.9-2.8,1.9-4.2h0ZM431.8,78.8c4.8-3,7.2-4.6,12.1-7.8,1.6-1.1,3.1-3.9,1.4-4.3-8.3-1.6-12,4.1-24.3,7.6-1.9,1.8-2,5.3-.2,6.5,2.3,1.5,7.7,0,11-2h0ZM359.5,81.3c-.3-1.3-.4-1.9-.7-3.2-.2-1-2.1-1.8-4.3-1.7-1.6,0-3.7,1.2-4.5,2.1-1.7,1.9-1.3,3.2.8,4.8.9.6,3.7,1,5.5.8,1.5-.2,3.4-2,3.3-2.7ZM348,88.1c2.2-.4,3.3-2.4,2.7-3.3-.7-1-4.3-1.4-7.1-.6-1.7.5-2.2,2.4-1.3,3.2.8.6,3.4,1.2,5.7.7ZM169.5,99.6c.2-2.1-.6-4.1-2-5.7-1.5-1.7-5.4-2-7.5-1.4-1.9.6-2.2,2.1-1.7,3.8.6,1.8,2.3,3.5,4.8,4.1,1.7.4,6.3.3,6.4-.9ZM364.9,93.2c-2.3,1-2.3,3-.9,3.5,1.1.4,3.8.4,5.1,0,1.6-.6,2.4-2.5,1.7-3.2-.6-.7-4.3-.9-5.9-.3h0ZM399.8,102.8c-2.2.5-3.6,3.3-2.9,4.5.6,1.1,4.6,1.6,6.5,1,2.4-.7,3.6-3.4,3.2-4.6-.5-1.3-4.1-1.6-6.8-1h0Z"/>
  <path class="st0" d="M25.4,36.8c-18.2-1.6-6.6,7.3-24.5-1.6-.6-1.6-.3-3.8.3-4.4,3.8-3.7,5-8.5,7.2-12.9.7-1.3,7,.8,2.1-4.6,2.5,0,3.8-.2,6.3-.2-.8-3.9-1.1-5.9-1.8-9.7,1.5-1,4.4-2.2,7-2.8,4.3,1.6,10.5,4.8,14.3,6.9,8.7,8.6,5.7,12.4,3.2,16.7-1.1,2-1.1,3.6-3.5,4.9-3.1,1.7-4.6,2.6-7.5,4.5-1,.6-1.3,3.4-3,3.2h0Z"/>
  <path class="st0" d="M509,74.7c-3.8,2.1-5.7,3.2-9.5,5.2-.5-1.6-1.5-6.3,1.1-8.2,4.6-3.2,6.8-4.9,10-8.9,1.6-2,7.2-4.9,9.2-6.8,10.5-9.9,3.4-1.7,13.8-11.7,2.4-2.3,4.6-4.6,7.1-5.9,5.4-2.8,10.1,0,9,2.3-.6,1.2-2.9,3.5-4.2,4.9-3.2,3.3-4.8,4.9-8,8.2-3,3-7.7,5.6-10.7,7.9-4.1,3.1-6.2,8-12.1,7.9-1.2,1.2-4.2,4.3-5.7,5.2h0Z"/>
</svg>