<?xml version="1.0" encoding="UTF-8"?>
<svg id="Warstwa_2" xmlns="http://www.w3.org/2000/svg" version="1.1" viewBox="0 0 269.7 90.8">
  <!-- Generator: Adobe Illustrator 30.5.1, SVG Export Plug-In . SVG Version: 2.1.4 Build 3)  -->
  <defs>
    <style>
      .st0 {
        fill: #fff;
      }
    </style>
  </defs>
  <path class="st0" d="M24,89.2h-12.7V12.6c0-2.7.5-5,1.6-6.9,1.1-1.9,2.5-3.3,4.3-4.2s3.8-1.4,6-1.4,5,.5,6.9,1.6,3.4,2.8,4.6,5.1l36.9,68.9c.3.6.5,1.1.6,1.3.1.3.4.4.9.4s.4,0,.5-.3c0-.2.1-.4.1-.8V1.6h12.7v76.8c0,2.6-.6,4.8-1.6,6.7-1.1,1.8-2.5,3.2-4.3,4.2-1.8,1-3.7,1.5-5.7,1.5s-4.7-.6-6.7-1.6c-2.1-1.1-3.7-2.8-5-5.2L26.3,14.9c-.2-.5-.3-.9-.5-1.2-.1-.3-.4-.4-.7-.4s-.6.1-.8.4c-.2.3-.3.7-.3,1.2v74.3h0Z"/>
  <path class="st0" d="M138,90.7c-6.4,0-12.2-1.5-17.4-4.6s-9.2-7.1-12.3-12.2-4.6-10.7-4.6-16.9,1.5-11.8,4.6-16.9c3.1-5,7.1-9.1,12.3-12.1,5.1-3,10.9-4.5,17.4-4.5s12.2,1.5,17.4,4.5c5.1,3,9.2,7.1,12.2,12.2,3,5.1,4.5,10.7,4.5,16.8s-1.5,11.8-4.5,16.9c-3,5.1-7,9.2-12.2,12.2s-11,4.6-17.3,4.6h0ZM138,78.4c4,0,7.6-1,10.8-2.9,3.2-1.9,5.7-4.5,7.5-7.8s2.8-6.8,2.8-10.7-.9-7.5-2.8-10.7-4.3-5.8-7.5-7.8-6.8-2.9-10.8-2.9-7.6,1-10.8,2.9-5.7,4.6-7.6,7.8c-1.9,3.2-2.9,6.8-2.9,10.7s1,7.4,2.9,10.7c1.9,3.3,4.5,5.9,7.6,7.8s6.8,2.9,10.8,2.9Z"/>
  <path class="st0" d="M199.5,89.2h-12.9v-38.2c0-5.2,1-9.9,2.9-14s4.8-7.3,8.6-9.7,8.5-3.5,14.1-3.5,4.1.2,6.1.6,3.8,1,5.4,1.8v12.8c-1.6-1-3.2-1.7-5-2.1s-3.5-.7-5.3-.7c-4.3,0-7.6,1.4-10.1,4.1s-3.7,6.5-3.7,11.2v37.7h0Z"/>
  <path class="st0" d="M245.5,89.2h-12.9v-38.2c0-5.2,1-9.9,2.9-14s4.8-7.3,8.6-9.7,8.5-3.5,14.1-3.5,4.1.2,6.1.6,3.8,1,5.4,1.8v12.8c-1.6-1-3.2-1.7-5-2.1s-3.5-.7-5.3-.7c-4.3,0-7.6,1.4-10.1,4.1s-3.7,6.5-3.7,11.2v37.7h0Z"/>
  <path class="st0" d="M0,51.2h0s0,0,0,0h0Z"/>
</svg>