<?xml version="1.0" encoding="UTF-8"?>
<svg id="Warstwa_1" xmlns="http://www.w3.org/2000/svg" version="1.1" xmlns:xlink="http://www.w3.org/1999/xlink" viewBox="0 0 276.5 125.3">
  <!-- Generator: Adobe Illustrator 30.5.1, SVG Export Plug-In . SVG Version: 2.1.4 Build 3)  -->
  <defs>
    <style>
      .st0 {
        fill: #fff;
      }

      .st1 {
        fill: none;
      }

      .st2 {
        clip-path: url(#clippath);
      }
    </style>
    <clipPath id="clippath">
      <rect class="st1" width="276.5" height="125.3"/>
    </clipPath>
  </defs>
  <polygon class="st0" points="71.2 107.5 87.7 83.2 71.2 83.2 71.2 107.5"/>
  <g class="st2">
    <path class="st0" d="M74.1,34.4l.7,1.7c9.3,1.1,18.3,6.1,24.6,15.1-6.2-9.8-15.5-15.3-25.3-16.7"/>
    <path class="st0" d="M87.5,73.7v-.4c-4.1,0-10.3,0-16.5,0V26.7l-2.9,7.4c-10.8.3-21.6,5.7-28.9,16.1-1.4,2.1,1.8,4,3,1.9,6.2-9.7,15.5-15,25.1-16l-14.4,36.1-.5,1.2h0v.4c2.9,1.3,5.8,2,8.8,2.5,8.9,1.3,18,1,26.3-2.5"/>
  </g>
  <rect class="st0" x="26.8" y="26.7" width=".5" height="80.8"/>
  <g>
    <path class="st0" d="M184,104.4h-.7v-4.2l-1.8,2.4h3.3v.6h-4v-.6l2.6-3.3h.6v5.1h0Z"/>
    <path class="st0" d="M188.3,104.4l-1-1.4-.3-.4h.2l-.3.4-1,1.4h-.8l1.6-2.2-1.5-2h.9l.9,1.2.3.5h-.2l.3-.5.9-1.2h.8l-1.5,2,1.6,2.2h-.9Z"/>
  </g>
  <g>
    <path class="st0" d="M64.8,116.6c0,.3,0,.5-.2.7,0,.2-.2.3-.4.5-.2,0-.4.3-.6.4s-.4.2-.6.4c-.2,0-.4.3-.6.4-.2,0-.3.3-.4.5s-.2.4-.2.7h-.7c0-.3,0-.5.2-.8s.2-.4.4-.6.4-.3.6-.4c.2,0,.4-.2.6-.4s.4-.2.6-.3c.2,0,.3-.2.4-.4.1,0,.2-.3.2-.5,0-.3,0-.5-.3-.7s-.4-.2-.7-.2-.6,0-.8.3c-.2.2-.3.4-.3.7h-.7c0-.3.2-.6.3-.8.2-.2.4-.4.6-.5.3,0,.6-.2.9-.2s.7,0,.9.2c.3,0,.4.3.6.5,0,.2.2.5.2.8v-.3ZM61.2,120.3v-.2l.6-.4h3.1v.6h-3.7Z"/>
    <path class="st0" d="M65.8,120.3v-.9h.9v.9h-.9Z"/>
    <path class="st0" d="M70,120.3h-.7v-4.2h-1v-.6h1c0,0,0,0,0-.3h.6v5.1ZM68.3,120.3v-.6h2.7v.6h-2.7Z"/>
    <path class="st0" d="M76,118.6c0,.4,0,.7-.2.9,0,.3-.4.5-.6.6-.3.2-.6.2-1.1.2s-.7,0-1-.2c-.3,0-.5-.3-.7-.5s-.3-.5-.3-.8h.7c0,.3.2.5.4.7s.5.3.9.3.7,0,.9-.3.3-.5.3-.9v-.4c0,0,0-.3-.2-.4,0,0-.2-.2-.4-.3-.2,0-.3,0-.6,0h-.5c0,0-.3,0-.4.2,0,0-.2.2-.2.3h-.6l.3-.4c.2-.2.4-.4.6-.5s.5-.2.9-.2.6,0,.9,0,.4.2.6.4c0,.2.3.4.3.6s0,.4,0,.7h-.1ZM72.5,115.1h3.3v.6h-2.7v1.9c0,0-.7.2-.7.2l.2-2.7h-.1Z"/>
    <path class="st0" d="M79.6,120.3l-1-1.4-.3-.4h.2l-.3.4-1,1.4h-.8l1.6-2.2-1.5-2h.9l.9,1.2.3.5h-.2l.3-.5.9-1.2h.8l-1.5,2,1.6,2.2h-.9Z"/>
  </g>
  <g>
    <path class="st0" d="M112.4,24.9h-.7v-4.2h-1v-.6h1c0,0,0-.1,0-.3h.6s0,5.1,0,5.1ZM110.7,24.9v-.6h2.7v.6h-2.7Z"/>
    <path class="st0" d="M117.5,24.9l-1-1.4-.3-.4h.2l-.3.4-1,1.4h-.8l1.6-2.2-1.5-2h.9l.9,1.2.3.5h-.2l.3-.5.9-1.2h.8l-1.5,2,1.6,2.2h-.9Z"/>
  </g>
  <rect class="st0" x="250" y="49.1" width=".5" height="39"/>
  <rect class="st0" x="245.4" y="48.9" width="5.1" height=".5"/>
  <rect class="st0" x="26.5" y="26.7" width="5.1" height=".5"/>
  <rect class="st0" x="26.5" y="107" width="5.1" height=".5"/>
  <rect class="st0" x="245.4" y="59" width="5.1" height=".5"/>
  <rect class="st0" x="245.4" y="87.8" width="5.1" height=".5"/>
  <rect class="st0" x="127.7" y="97.9" width="113.3" height=".5"/>
  <rect class="st0" x="240.5" y="93.2" width=".5" height="5.1"/>
  <rect class="st0" x="127.7" y="93.2" width=".5" height="5.1"/>
  <rect class="st0" x="99.3" y="26.7" width=".5" height="5.1"/>
  <rect class="st0" x="127.2" y="26.7" width=".5" height="5.1"/>
  <rect class="st0" x="99.3" y="109.1" width=".5" height="5.1"/>
  <rect class="st0" x="38.8" y="109.1" width=".5" height="5.1"/>
  <g>
    <path class="st0" d="M257.3,76.7h-.7v-4.2h-1v-.6h1c.1,0,.1,0,.1-.3h.6v5.1ZM255.6,76.7v-.6h2.7v.6h-2.7Z"/>
    <path class="st0" d="M262.4,76.7l-1-1.4-.3-.4h.2l-.3.4-1,1.4h-.8l1.6-2.2-1.5-2h.9l.9,1.2.3.5h-.2l.3-.5.9-1.2h.8l-1.5,2,1.6,2.2h-.9Z"/>
  </g>
  <g>
    <path class="st0" d="M8.4,68.2c0,.3,0,.5-.2.7-.1.2-.2.3-.4.5-.2,0-.4.3-.6.4s-.4.2-.6.4c-.2,0-.4.3-.6.4s-.3.3-.4.5-.2.4-.2.7h-.7c0-.3,0-.5.2-.8s.2-.4.4-.6c.2-.2.4-.3.6-.4s.4-.2.6-.4.4-.2.6-.3c.2,0,.3-.2.4-.4,0,0,.2-.3.2-.5,0-.3,0-.5-.3-.7s-.4-.2-.7-.2-.6,0-.8.3c-.2.2-.3.4-.3.7h-.7c0-.3.2-.6.3-.8.2-.2.4-.4.6-.5.3,0,.6-.2.9-.2s.7,0,.9.2c.3,0,.4.3.6.5.1.2.2.5.2.8v-.3ZM4.8,71.9v-.2l.6-.4h3.1v.6h-3.7Z"/>
    <path class="st0" d="M9.4,71.9v-.9h.9v.9h-.9Z"/>
    <path class="st0" d="M13.1,72c-.4,0-.7,0-1-.2-.3,0-.5-.3-.7-.5s-.2-.5-.2-.8,0-.6.2-.8c.2-.2.4-.4.7-.5s.6-.2,1-.2.7,0,1,.2c.3,0,.5.3.7.5s.2.5.2.8,0,.6-.2.8c-.2.2-.4.4-.7.5s-.6.2-1,.2ZM13.1,66.6c.3,0,.6,0,.9.2.3,0,.5.3.6.5s.2.5.2.8,0,.5-.2.7c-.1.2-.3.4-.6.5s-.6.2-.9.2-.6,0-.9-.2-.5-.3-.6-.5-.2-.4-.2-.7,0-.5.2-.7c.1-.2.3-.4.6-.5s.6-.2.9-.2h0ZM13.1,71.4c.4,0,.7,0,.9-.2s.3-.4.3-.7,0-.4-.2-.5c-.1,0-.2-.3-.4-.3s-.4,0-.6,0c-.4,0-.7,0-.9.2s-.3.4-.3.7.1.5.3.7.5.3.9.3h0ZM13.1,67.2c-.3,0-.6,0-.8.2-.2,0-.3.4-.3.6s0,.5.3.6.4.2.8.2.6,0,.8-.2.3-.4.3-.6,0-.5-.3-.6-.4-.2-.8-.2Z"/>
    <path class="st0" d="M19.6,70.2c0,.4,0,.7-.2.9-.1.3-.4.5-.6.6-.3.2-.6.2-1.1.2s-.7,0-1-.2c-.3,0-.5-.3-.7-.5s-.3-.5-.3-.8h.7c0,.3.2.5.4.7s.5.3.9.3.7,0,.9-.3.3-.5.3-.9v-.4c0,0-.1-.3-.2-.4,0,0-.2-.2-.4-.3-.2,0-.3,0-.6,0h-.5c-.1,0-.3,0-.4.2,0,0-.2.2-.2.3h-.6l.3-.4c.2-.2.4-.4.6-.5s.5-.2.9-.2.6,0,.9,0,.4.2.6.4c.1.2.3.4.3.6s.1.4.1.7h0ZM16.1,66.7h3.3v.6h-2.7v1.9c-.1,0-.7.2-.7.2l.2-2.7h0Z"/>
    <path class="st0" d="M23.2,71.9l-1-1.4-.3-.4h.2l-.3.4-1,1.4h-.8l1.6-2.2-1.5-2h.9l.9,1.2.3.5h-.2l.3-.5.9-1.2h.8l-1.5,2,1.6,2.2h-.9Z"/>
  </g>
  <g>
    <path class="st0" d="M256.8,57c-.6,0-1.1-.2-1.5-.7s-.5-1.1-.5-2,.2-1.5.5-2,.8-.7,1.5-.7,1.1.2,1.5.7c.3.5.5,1.1.5,2s-.2,1.5-.5,2-.8.7-1.5.7ZM256.8,56.4c.4,0,.7-.2.9-.5.2-.4.3-.9.3-1.5s-.1-1.2-.3-1.5c-.2-.4-.5-.5-.9-.5s-.7.2-1,.5c-.2.4-.3.9-.3,1.5s.1,1.1.3,1.5.5.5,1,.5Z"/>
    <path class="st0" d="M259.6,56.9v-.9h.9v.9h-.9Z"/>
    <path class="st0" d="M264.5,56.9h-.7v-4.2l-1.8,2.4h3.3v.6h-4v-.6l2.6-3.3h.6v5.1Z"/>
    <path class="st0" d="M268.8,56.9l-1-1.4-.3-.4h.2l-.3.4-1,1.4h-.8l1.6-2.2-1.5-2h.9l.9,1.2.3.5h-.2l.3-.5.9-1.2h.8l-1.5,2,1.6,2.2h-.9Z"/>
  </g>
  <path class="st0" d="M123.6,52.3c0-.3.2-.5.5-.5h0c.3,0,.5.2.5.5h0c0,.3-.2.5-.5.5h0c-.3,0-.5-.2-.5-.5ZM120.5,52.3c0-.3.2-.5.5-.5h0c.3,0,.5.2.5.5h0c0,.3-.2.5-.5.5h0c-.3,0-.5-.2-.5-.5ZM117.4,52.3c0-.3.2-.5.5-.5h0c.3,0,.5.2.5.5h0c0,.3-.2.5-.5.5h0c-.3,0-.5-.2-.5-.5ZM114.3,52.3c0-.3.2-.5.5-.5h0c.3,0,.5.2.5.5h0c0,.3-.2.5-.5.5h0c-.3,0-.5-.2-.5-.5ZM111.2,52.3c0-.3.2-.5.5-.5h0c.3,0,.5.2.5.5h0c0,.3-.2.5-.5.5h0c-.3,0-.5-.2-.5-.5ZM108.1,52.3c0-.3.2-.5.5-.5h0c.3,0,.5.2.5.5h0c0,.3-.2.5-.5.5h0c-.3,0-.5-.2-.5-.5ZM105,52.3c0-.3.2-.5.5-.5h0c.3,0,.5.2.5.5h0c0,.3-.2.5-.5.5h0c-.3,0-.5-.2-.5-.5ZM101.9,52.3c0-.3.2-.5.5-.5h0c.3,0,.5.2.5.5h0c0,.3-.2.5-.5.5h0c-.3,0-.5-.2-.5-.5Z"/>
  <path class="st0" d="M123.6,83c0-.3.2-.5.5-.5h0c.3,0,.5.2.5.5h0c0,.3-.2.5-.5.5h0c-.3,0-.5-.2-.5-.5ZM120.5,83c0-.3.2-.5.5-.5h0c.3,0,.5.2.5.5h0c0,.3-.2.5-.5.5h0c-.3,0-.5-.2-.5-.5ZM117.4,83c0-.3.2-.5.5-.5h0c.3,0,.5.2.5.5h0c0,.3-.2.5-.5.5h0c-.3,0-.5-.2-.5-.5ZM114.3,83c0-.3.2-.5.5-.5h0c.3,0,.5.2.5.5h0c0,.3-.2.5-.5.5h0c-.3,0-.5-.2-.5-.5ZM111.2,83c0-.3.2-.5.5-.5h0c.3,0,.5.2.5.5h0c0,.3-.2.5-.5.5h0c-.3,0-.5-.2-.5-.5ZM108.1,83c0-.3.2-.5.5-.5h0c.3,0,.5.2.5.5h0c0,.3-.2.5-.5.5h0c-.3,0-.5-.2-.5-.5ZM105,83c0-.3.2-.5.5-.5h0c.3,0,.5.2.5.5h0c0,.3-.2.5-.5.5h0c-.3,0-.5-.2-.5-.5ZM101.9,83c0-.3.2-.5.5-.5h0c.3,0,.5.2.5.5h0c0,.3-.2.5-.5.5h0c-.3,0-.5-.2-.5-.5Z"/>
  <rect class="st0" x="99.3" y="26.4" width="28.3" height=".5"/>
  <rect class="st0" x="38.8" y="113.8" width="61" height=".5"/>
  <g>
    <path class="st0" d="M158.7,87.4c-2.6,2-6.7,1.2-8.3-1.9l-16.9-31.4-.2,33.7h-5.6s0-34.2,0-34.2c0-3,2.6-5,5.3-4.9s3.8.8,4.8,2.7l17.1,31.7v-33.7c.1,0,5.7,0,5.7,0v33.8c0,1.8-.7,3.3-1.9,4.3Z"/>
    <path class="st0" d="M184.6,88.5c-5.5.5-10.5-2-13.4-6s-3.8-10.2-1.5-15,8.6-8.8,15-8.4c7.8.6,13.6,7,13.6,14.7s-5.7,14-13.7,14.7ZM192.5,73.7c0-3.8-2.2-7.1-5.2-8.5s-7.2-1.1-10,1.3c-4.5,3.9-4.5,10.6,0,14.5s6.7,2.9,10.1,1.2,5.1-4.6,5.1-8.4Z"/>
    <path class="st0" d="M210.3,70.2v17.7c0,0-5.8,0-5.8,0v-17.5c0-3.1,1.2-6.1,3.3-8.2,3.2-3.3,8.6-3.7,13.1-2v5.6c-2.4-1-4.7-1.5-7.1-.6s-3.4,2.8-3.4,5.1Z"/>
    <path class="st0" d="M230.5,70.4v17.4s-5.7,0-5.7,0v-17.5c0-3,1.2-5.9,3.2-8.1,3.2-3.4,8.8-3.9,13.2-2.1v5.5c-2.3-1-4.7-1.5-7.1-.6s-3.5,3-3.5,5.4Z"/>
  </g>
</svg>