<?xml version="1.0" encoding="UTF-8"?>
<svg id="Warstwa_2" xmlns="http://www.w3.org/2000/svg" version="1.1" viewBox="0 0 123.6 135.7">
  <!-- Generator: Adobe Illustrator 30.5.1, SVG Export Plug-In . SVG Version: 2.1.4 Build 3)  -->
  <defs>
    <style>
      .st0 {
        fill: #fff;
      }
    </style>
  </defs>
  <path class="st0" d="M123.6,77.5h0s0,0,0,0h0Z"/>
  <g>
    <polygon class="st0" points="20.8 71.7 20.8 71.2 20.6 71.7 20.8 71.7"/>
    <polygon class="st0" points="54.3 135.7 82 94.9 54.3 94.9 54.3 135.7"/>
    <path class="st0" d="M59.2,12.9l1.1,2.8c15.6,1.9,30.6,10.3,41.3,25.3-10.5-16.4-26-25.8-42.4-28.1Z"/>
    <path class="st0" d="M81.7,78.9v-.6c-6.9-.1-17.2-.2-27.7-.2V0l-4.9,12.4C30.9,12.9,12.9,22,.6,39.4c-2.3,3.5,3,6.7,5.1,3.1,10.4-16.2,26-25.2,42.2-26.9l-24.1,60.7-.8,2h0v.6c4.9,2.2,9.8,3.4,14.7,4.2,14.9,2.1,30.3,1.7,44.1-4.2Z"/>
  </g>
</svg>