<?xml version="1.0" encoding="UTF-8"?>
<svg id="Warstwa_2" data-name="Warstwa 2" xmlns="http://www.w3.org/2000/svg" viewBox="0 0 171.48 44.34">
  <defs>
    <style>
      .cls-1 {
        fill: #fff;
      }
    </style>
  </defs>
  <g id="Warstwa_1-2" data-name="Warstwa 1">
    <g>
      <path class="cls-1" d="M11.07,41.69c1.23-3.12,2-5.77,2.12-8.06v-.12c-5.27,5.63-7.91,8.53-13.19,10.84.09-.44.13-.66.22-1.09,1.48-.63,2.22-1.06,3.7-2.08.46-2.83.69-4.25,1.15-7.08,2.55-15.7,2.88-19.52,3.17-23.73-.69.06-1.04.06-1.73-.03.09-.44.13-.66.22-1.1,2.83.5,5.57-1.47,6.64-2.42-.6,4.66-.97,7.53-1.53,13.76-.41,4.46-.84,10.27-.81,14.41.89-.89,1.33-1.36,2.22-2.29.57-10.69,1.15-21.39,1.72-32.08.53-.25.78-.37,1.3-.61-.46,1.63-.86,3.92-1.02,5.97,1.37-.45,3.07-1.13,4.84-1.86,3.28-1.36,4.75-1.57,4.03-3.21.17.04.26.06.43.1.12.23.18.34.3.56,1.35,2.57.54,4.35-2.8,6.18-2.86,1.57-4.87-1.34-6.85-.97-.21,5.25-.31,7.87-.51,13.12.97-4.6,2.49-7.05,5.48-9.16,4.31-3.05,9.18-2.46,10.54-.17.92,1.55-.5,3.34-5.17,9.44,2.59-2.29,3.88-3.3,6.47-4.59.08.16.12.23.2.39-3.52,1.79-5.28,3.37-8.8,6.83,1.22-3.24,1.37-5.96.9-8.03-.58-2.54-2.21-4.6-5.16-2.36-3.15,2.39-4.46,7.29-4.83,16.88-.04,1.01-.06,1.52-.1,2.54,1.15-1.23,1.72-1.85,2.87-3.09,0,.29,0,.43,0,.72-1.16,1.27-1.74,1.91-2.9,3.16-.09,2.28-.13,3.42-.22,5.7-1.15,1.43-1.73,2.14-2.89,3.53Z"/>
      <path class="cls-1" d="M118.35,41.67c1.23-2.95,1.99-5.5,2.07-7.73.2-5.39.3-8.09.51-13.48-.9.75-1.35,1.12-2.26,1.81-.35,4.42-.64,9.83-.45,13.59,0,.02,0,.03,0,.04-4.54,4.17-6.81,6.2-11.35,7.45.08-.4.12-.6.21-1,1.52-.41,2.28-.75,3.8-1.61.43-2.65.65-3.97,1.08-6.62,2.39-14.68,2.67-18.23,2.91-22.1-.71.12-1.07.14-1.78.09.08-.4.13-.6.21-1.01,2.99.33,5.68-2.03,6.8-3.14-.54,4.53-.87,7.3-1.34,13.3,0,.07,0,.1-.01.17.89-.67,1.33-1.03,2.22-1.76.27-7.19.41-10.79.68-17.98.54-.38.8-.57,1.33-.94-.51,2.02-.94,4.85-.98,7.07-.02.78-.03,1.17-.04,1.95.55-2.48,1.39-4.14,2.9-4.99,3.5-1.98,6.96-.69,8.04,2.09.98,2.53-1.44,4.27-7.05,9.16,6.15-4.89,10.17-3.28,11.31-.58,1.38,3.28-3.56,6.36-9.81,12.11-3.24,2.98-5.01,3.62-5.83,2.14-.08,3.5-.11,5.26-.19,8.76-1.18,1.3-1.77,1.95-2.96,3.22ZM121.74,19.03c.7-.58,1.04-.87,1.74-1.45,3.48-2.89,4.45-5.36,4.01-8.39-.45-3.06-1.52-4.34-2.93-3.5-2.12,1.26-2.66,6.02-2.79,12.21,0,.45-.01.68-.02,1.13ZM129.88,19.05c-.57-3.32-2.29-4.19-6.39-.74-.71.6-1.06.9-1.77,1.49-.02.87-.03,1.31-.05,2.18-.13,6.07.63,9.48,4.83,5.57,2.63-2.45,3.89-5.46,3.37-8.5Z"/>
      <path class="cls-1" d="M31.45,34.83c-.83,1.54-1.84,2.89-2.88,4.31-1.31-.91-2.7-2.69-3.41-4.35.33-1.46.44-2.77.44-5.46v-5.78l-1.6-1.03c-.21.28-.42.63-.65.99l-.42-.59c.95-1.15,1.81-2.45,2.82-4.04l3.18,1.86v6.88c0,2.45-.09,4.23-.33,5.54.33.87.86,1.46,1.69,2.26.53-.83,1.04-1.78,1.49-2.81.09-.87.12-1.9.12-3.28v-5.42c-.62-.59-1.3-1.03-1.99-1.39l1.9-3.64,2.2,1.35c1.01.63,1.22,1.78,1.22,2.97v4.43c0,2.45-.09,4.23-.33,5.54.36.87.86,1.46,1.75,2.3.21-.28.42-.59.62-.95l.42.59c-.95,1.15-1.81,2.45-2.82,4.04-1.31-.91-2.7-2.69-3.41-4.31Z"/>
      <path class="cls-1" d="M44.42,34.79c.33-1.46.45-2.77.45-5.46v-5.42c-.72-.48-1.43-.87-2.2-1.19-.24.4-.51.83-.77,1.35v3.56c0,2.37-.06,4.23-.33,5.54.39.99,1.01,1.62,2.11,2.61l-2.14,3.36c-1.3-.91-2.7-2.69-3.41-4.35.33-1.46.44-2.77.44-5.46v-5.78l-1.6-1.03c-.21.28-.42.63-.65.99l-.42-.59c.95-1.15,1.81-2.45,2.82-4.04l3.18,1.86v1.9c.68-1.46,1.46-2.73,2.23-3.76l2.85,1.54c1.04.55,1.22,1.66,1.22,2.77v4.43c0,2.37-.06,4.23-.33,5.54.35.87.86,1.46,1.75,2.3.21-.28.42-.59.62-.95l.42.59c-.95,1.15-1.81,2.45-2.82,4.04-1.31-.91-2.7-2.69-3.42-4.35Z"/>
      <path class="cls-1" d="M50.89,34.79c.33-1.46.44-2.77.44-5.46v-6.01l3.33-1.23v5.54c0,1.9-.12,3.92-.33,5.14.68,1.03,1.55,1.94,3.03,2.81.12-2.02.18-4.31.18-6.96,0-1.78-.03-3.72-.09-5.82l-7.27-5.38c-1.55-1.15-1.78-2.1-.68-3.92.71-1.19,1.28-2.26,1.81-3.64l.44.43-.44,1.03c-.09.24-.15.51-.15.75,0,1.07,1.25,2.37,7.63,6.65,1.66,1.11,1.96,2.45,1.96,5.26v8.86c-2.11,2.49-3.15,3.8-4.81,6.29-1.78-.67-4.28-2.57-5.05-4.35Z"/>
      <path class="cls-1" d="M63.36,34.79c.33-1.46.44-2.77.44-5.46v-5.78l-1.6-1.03c-.21.28-.42.63-.65.99l-.42-.59c.95-1.15,1.81-2.45,2.82-4.04l3.18,1.86v2.02c.72-1.5,1.49-2.81,2.29-3.88l2.67,2.73-1.81,3.13v2.73l-.72.32c.09-.83.15-1.66.15-2.93-.56-.75-1.22-1.38-1.87-1.94-.24.39-.48.79-.72,1.27v3.44c0,2.18-.06,4.08-.33,5.54.33.87.86,1.46,1.72,2.26.24-.36.47-.71.74-1.15l.42.59c-.53.67-1.04,1.38-1.57,2.18l-1.34,2.1c-1.31-.91-2.7-2.69-3.41-4.35Z"/>
      <path class="cls-1" d="M71.79,34.79c.33-1.42.44-2.73.44-5.34-.47.04-.98.16-1.6.28l.38-1.11h1.22v-5.26l2.26-.83,1.87-3.64,2.91,2.22c.74.55,1.1,1.78.39,2.89-1.04,1.66-2.23,3.12-3.44,4.63h3.51l-.39.95c-.8-.12-2.2-.24-3.8-.24-.06,1.35-.15,2.57-.3,3.44.68.99,1.66,1.9,3.15,2.73.24-.36.5-.75.8-1.23l.42.59c-.53.67-1.04,1.38-1.58,2.18l-1.34,2.1c-1.78-.67-4.13-2.57-4.9-4.35ZM77.88,25.41c-.71-.83-1.42-1.46-2.32-2.06v5.02c.77-.99,1.51-1.9,2.32-2.97Z"/>
      <path class="cls-1" d="M81,34.79c.33-1.46.44-2.77.44-5.46v-6.01l3.33-1.23v5.54c0,1.9-.12,3.92-.33,5.14.68,1.03,1.55,1.94,3.03,2.81.12-2.02.18-4.31.18-6.96,0-1.78-.03-3.72-.09-5.82l-7.27-5.38c-1.55-1.15-1.78-2.1-.68-3.92.71-1.19,1.28-2.26,1.81-3.64l.44.43-.44,1.03c-.09.24-.15.51-.15.75,0,1.07,1.25,2.37,7.63,6.65,1.66,1.11,1.96,2.45,1.96,5.26v8.86c-2.11,2.49-3.15,3.8-4.81,6.29-1.78-.67-4.28-2.57-5.05-4.35Z"/>
      <g>
        <path class="cls-1" d="M132.02,34.99c.33-1.42.44-2.73.44-5.34-.48.04-.98.16-1.6.28l.39-1.11h1.22v-5.26l2.26-.83,1.87-3.64,2.91,2.22c.74.55,1.1,1.78.39,2.89-1.04,1.66-2.23,3.12-3.45,4.63h3.51l-.39.95c-.8-.12-2.2-.24-3.8-.24-.06,1.35-.15,2.57-.3,3.44.68.99,1.66,1.9,3.15,2.73.24-.36.51-.75.8-1.23l.42.59c-.53.67-1.04,1.38-1.57,2.18l-1.34,2.1c-1.78-.67-4.13-2.57-4.9-4.35ZM138.11,25.61c-.72-.83-1.43-1.46-2.32-2.06v5.02c.77-.99,1.52-1.9,2.32-2.97Z"/>
        <path class="cls-1" d="M147.14,35.5c-.68,1.35-1.42,2.65-2.26,3.84-1.43-.71-3.03-2.69-3.77-4.35.3-1.38.44-2.57.44-5.06v-.99l1.93-.75c-1.25-.48-1.84-1.62-1.84-2.89,0-.99.47-2.14,1.1-3.17l1.87-3.05,4.84,1.35c.86.24,1.22,1.3,1.22,2.97v4.47c0,2.06-.12,3.96-.33,5.5.36.87.86,1.46,1.75,2.3.21-.28.42-.59.62-.95l.42.59c-.95,1.15-1.81,2.45-2.82,4.04-1.19-.83-2.44-2.33-3.18-3.84ZM147.35,27.07v-2.97c-1.34-.55-2.64-1.03-4.04-1.27-.3.75-.42,1.42-.42,1.82,0,1.58.53,2.93,2.44,2.93.59,0,1.34-.16,2.02-.51ZM146.37,35.42c.8-1.54.98-4.15.98-5.94v-1.62c-.98.48-1.72.55-2.49.55h-.06v.51c0,1.43-.15,3.21-.33,4.23.47.91,1.01,1.58,1.9,2.26Z"/>
        <path class="cls-1" d="M153.58,34.99c.33-1.46.44-2.77.44-5.46v-5.78l-1.6-1.03c-.21.28-.42.63-.65.99l-.42-.59c.95-1.15,1.81-2.45,2.82-4.04l3.18,1.86v2.02c.72-1.5,1.49-2.81,2.29-3.88l2.67,2.73-1.81,3.13v2.73l-.72.32c.09-.83.15-1.66.15-2.93-.56-.75-1.22-1.38-1.87-1.94-.24.39-.48.79-.72,1.27v3.44c0,2.18-.06,4.08-.33,5.54.33.87.86,1.46,1.72,2.26.24-.36.47-.71.74-1.15l.42.59c-.53.67-1.04,1.38-1.57,2.18l-1.34,2.1c-1.31-.91-2.7-2.69-3.41-4.35Z"/>
        <path class="cls-1" d="M162.16,35.23l-.56-.55c.59-.59,1.04-1.19,2.11-2.53l.6-.75-2.53-2.61v-.51c0-1.46.21-3.48.53-4.91l1.96-1.23,2.44-3.05,4.31,3.8.39.36-2.46,3.21,1.75,1.66c.47.43.8,1.15.8,2.1,0,1.03-.27,3.64-.53,4.83l-2.41,1.54-2.2,2.77-4.19-4.11ZM168.36,26.2c-1.01-1.39-1.99-2.37-3.23-3.21-.24,1.27-.39,2.61-.39,3.8.53.59,1.07,1.15,1.72,1.82l1.9-2.41ZM166.64,29.41l-1.9,2.45c1.01,1.46,1.99,2.65,3.36,3.68.26-1.62.38-3.32.38-4.23-.59-.83-1.13-1.39-1.84-1.9Z"/>
      </g>
    </g>
  </g>
</svg>